solid CATIA STL
  facet normal  0.000000e+000  8.660257e-001 -4.999994e-001
    outer loop
      vertex  5.250000e+000  1.824310e+001  2.859798e+001
      vertex  8.186600e+001  1.824310e+001  2.859798e+001
      vertex  5.225982e+000  1.812117e+001  2.838679e+001
    endloop
  endfacet
  facet normal  0.000000e+000  8.660258e-001 -4.999993e-001
    outer loop
      vertex  5.250000e+000  1.824310e+001  2.859798e+001
      vertex  5.225982e+000  1.836503e+001  2.880917e+001
      vertex  8.186600e+001  1.824310e+001  2.859798e+001
    endloop
  endfacet
  facet normal  4.734739e-009  8.660251e-001 -5.000005e-001
    outer loop
      vertex  8.186600e+001  1.824310e+001  2.859798e+001
      vertex  5.154850e+000  1.848228e+001  2.901225e+001
      vertex  5.039337e+000  1.859033e+001  2.919940e+001
    endloop
  endfacet
  facet normal -1.390180e-008  8.660235e-001 -5.000031e-001
    outer loop
      vertex  8.186600e+001  1.824310e+001  2.859798e+001
      vertex  5.225982e+000  1.836503e+001  2.880917e+001
      vertex  5.154850e+000  1.848228e+001  2.901225e+001
    endloop
  endfacet
  facet normal  0.000000e+000  8.660254e-001 -5.000000e-001
    outer loop
      vertex  8.711600e+001  3.464102e+000  3.000000e+000
      vertex  0.000000e+000  3.464102e+000  3.000000e+000
      vertex  8.335986e+001  1.763011e+001  2.753625e+001
    endloop
  endfacet
  facet normal  8.530053e-006  8.660260e-001 -4.999991e-001
    outer loop
      vertex  8.711600e+001  3.464102e+000  3.000000e+000
      vertex  8.335986e+001  1.763011e+001  2.753625e+001
      vertex  8.359435e+001  1.766568e+001  2.759785e+001
    endloop
  endfacet
  facet normal -9.653304e-007  8.660254e-001 -5.000001e-001
    outer loop
      vertex  8.711600e+001  3.464102e+000  3.000000e+000
      vertex  8.359435e+001  1.766568e+001  2.759785e+001
      vertex  8.381046e+001  1.772343e+001  2.769789e+001
    endloop
  endfacet
  facet normal -7.092986e-006  8.660250e-001 -5.000007e-001
    outer loop
      vertex  8.711600e+001  3.464102e+000  3.000000e+000
      vertex  8.381046e+001  1.772343e+001  2.769789e+001
      vertex  8.399989e+001  1.780116e+001  2.783251e+001
    endloop
  endfacet
  facet normal  5.526366e-006  8.660257e-001 -4.999994e-001
    outer loop
      vertex  8.711600e+001  3.464102e+000  3.000000e+000
      vertex  8.399989e+001  1.780116e+001  2.783251e+001
      vertex  8.415533e+001  1.789587e+001  2.799656e+001
    endloop
  endfacet
  facet normal -7.979195e-006  8.660250e-001 -5.000007e-001
    outer loop
      vertex  8.711600e+001  3.464102e+000  3.000000e+000
      vertex  8.415533e+001  1.789587e+001  2.799656e+001
      vertex  8.427085e+001  1.800393e+001  2.818371e+001
    endloop
  endfacet
  facet normal  8.541213e-006  8.660259e-001 -4.999993e-001
    outer loop
      vertex  8.711600e+001  3.464102e+000  3.000000e+000
      vertex  8.427085e+001  1.800393e+001  2.818371e+001
      vertex  8.434198e+001  1.812117e+001  2.838679e+001
    endloop
  endfacet
  facet normal  3.799428e-006  8.660256e-001 -4.999997e-001
    outer loop
      vertex  8.711600e+001  3.464102e+000  3.000000e+000
      vertex  8.434198e+001  1.812117e+001  2.838679e+001
      vertex  8.436600e+001  1.824310e+001  2.859798e+001
    endloop
  endfacet
  facet normal  2.736156e-007  8.660254e-001 -5.000000e-001
    outer loop
      vertex  8.711600e+001  3.464102e+000  3.000000e+000
      vertex  8.436600e+001  1.824310e+001  2.859798e+001
      vertex  8.711600e+001  2.374310e+001  3.812426e+001
    endloop
  endfacet
  facet normal -2.736156e-007  8.660254e-001 -5.000000e-001
    outer loop
      vertex  0.000000e+000  3.464102e+000  3.000000e+000
      vertex  0.000000e+000  2.374310e+001  3.812426e+001
      vertex  2.750000e+000  1.824310e+001  2.859798e+001
    endloop
  endfacet
  facet normal -3.799350e-006  8.660256e-001 -4.999998e-001
    outer loop
      vertex  0.000000e+000  3.464102e+000  3.000000e+000
      vertex  2.750000e+000  1.824310e+001  2.859798e+001
      vertex  2.774018e+000  1.812117e+001  2.838679e+001
    endloop
  endfacet
  facet normal -8.453755e-006  8.660258e-001 -4.999993e-001
    outer loop
      vertex  0.000000e+000  3.464102e+000  3.000000e+000
      vertex  2.774018e+000  1.812117e+001  2.838679e+001
      vertex  2.845150e+000  1.800393e+001  2.818371e+001
    endloop
  endfacet
  facet normal  7.919435e-006  8.660250e-001 -5.000007e-001
    outer loop
      vertex  0.000000e+000  3.464102e+000  3.000000e+000
      vertex  2.845150e+000  1.800393e+001  2.818371e+001
      vertex  2.960663e+000  1.789587e+001  2.799656e+001
    endloop
  endfacet
  facet normal -5.526223e-006  8.660256e-001 -4.999995e-001
    outer loop
      vertex  0.000000e+000  3.464102e+000  3.000000e+000
      vertex  2.960663e+000  1.789587e+001  2.799656e+001
      vertex  3.116117e+000  1.780116e+001  2.783251e+001
    endloop
  endfacet
  facet normal  7.093052e-006  8.660251e-001 -5.000007e-001
    outer loop
      vertex  0.000000e+000  3.464102e+000  3.000000e+000
      vertex  3.116117e+000  1.780116e+001  2.783251e+001
      vertex  3.305537e+000  1.772343e+001  2.769789e+001
    endloop
  endfacet
  facet normal  9.835513e-007  8.660254e-001 -5.000001e-001
    outer loop
      vertex  0.000000e+000  3.464102e+000  3.000000e+000
      vertex  3.305537e+000  1.772343e+001  2.769789e+001
      vertex  3.521646e+000  1.766568e+001  2.759785e+001
    endloop
  endfacet
  facet normal -8.529985e-006  8.660260e-001 -4.999990e-001
    outer loop
      vertex  0.000000e+000  3.464102e+000  3.000000e+000
      vertex  3.521646e+000  1.766568e+001  2.759785e+001
      vertex  3.756137e+000  1.763011e+001  2.753625e+001
    endloop
  endfacet
  facet normal  6.650799e-006  8.660250e-001 -5.000008e-001
    outer loop
      vertex  0.000000e+000  3.464102e+000  3.000000e+000
      vertex  3.756137e+000  1.763011e+001  2.753625e+001
      vertex  4.000000e+000  1.761810e+001  2.751545e+001
    endloop
  endfacet
  facet normal -6.842903e-006  8.660259e-001 -4.999991e-001
    outer loop
      vertex  0.000000e+000  3.464102e+000  3.000000e+000
      vertex  4.000000e+000  1.761810e+001  2.751545e+001
      vertex  4.243863e+000  1.763011e+001  2.753625e+001
    endloop
  endfacet
  facet normal  9.295401e-006  8.660247e-001 -5.000012e-001
    outer loop
      vertex  0.000000e+000  3.464102e+000  3.000000e+000
      vertex  4.243863e+000  1.763011e+001  2.753625e+001
      vertex  4.478354e+000  1.766568e+001  2.759785e+001
    endloop
  endfacet
  facet normal -1.124045e-006  8.660255e-001 -4.999998e-001
    outer loop
      vertex  0.000000e+000  3.464102e+000  3.000000e+000
      vertex  4.478354e+000  1.766568e+001  2.759785e+001
      vertex  4.694463e+000  1.772343e+001  2.769789e+001
    endloop
  endfacet
  facet normal -8.981036e-006  8.660261e-001 -4.999986e-001
    outer loop
      vertex  0.000000e+000  3.464102e+000  3.000000e+000
      vertex  4.694463e+000  1.772343e+001  2.769789e+001
      vertex  4.883883e+000  1.780116e+001  2.783251e+001
    endloop
  endfacet
  facet normal  7.896912e-006  8.660247e-001 -5.000011e-001
    outer loop
      vertex  0.000000e+000  3.464102e+000  3.000000e+000
      vertex  4.883883e+000  1.780116e+001  2.783251e+001
      vertex  5.039337e+000  1.789587e+001  2.799656e+001
    endloop
  endfacet
  facet normal -1.412424e-005  8.660266e-001 -4.999979e-001
    outer loop
      vertex  0.000000e+000  3.464102e+000  3.000000e+000
      vertex  5.039337e+000  1.789587e+001  2.799656e+001
      vertex  5.154850e+000  1.800393e+001  2.818371e+001
    endloop
  endfacet
  facet normal  2.717704e-005  8.660230e-001 -5.000042e-001
    outer loop
      vertex  0.000000e+000  3.464102e+000  3.000000e+000
      vertex  5.154850e+000  1.800393e+001  2.818371e+001
      vertex  5.225982e+000  1.812117e+001  2.838679e+001
    endloop
  endfacet
  facet normal  2.336020e-009  8.660254e-001 -4.999999e-001
    outer loop
      vertex  0.000000e+000  3.464102e+000  3.000000e+000
      vertex  5.225982e+000  1.812117e+001  2.838679e+001
      vertex  8.186600e+001  1.824310e+001  2.859798e+001
    endloop
  endfacet
  facet normal -2.537111e-007  8.660259e-001 -4.999994e-001
    outer loop
      vertex  0.000000e+000  3.464102e+000  3.000000e+000
      vertex  8.186600e+001  1.824310e+001  2.859798e+001
      vertex  8.189001e+001  1.812117e+001  2.838679e+001
    endloop
  endfacet
  facet normal -1.086380e-006  8.660270e-001 -4.999973e-001
    outer loop
      vertex  0.000000e+000  3.464102e+000  3.000000e+000
      vertex  8.189001e+001  1.812117e+001  2.838679e+001
      vertex  8.196115e+001  1.800393e+001  2.818371e+001
    endloop
  endfacet
  facet normal  1.493549e-006  8.660234e-001 -5.000036e-001
    outer loop
      vertex  0.000000e+000  3.464102e+000  3.000000e+000
      vertex  8.196115e+001  1.800393e+001  2.818371e+001
      vertex  8.207666e+001  1.789587e+001  2.799656e+001
    endloop
  endfacet
  facet normal -1.392380e-006  8.660274e-001 -4.999966e-001
    outer loop
      vertex  0.000000e+000  3.464102e+000  3.000000e+000
      vertex  8.207666e+001  1.789587e+001  2.799656e+001
      vertex  8.223212e+001  1.780116e+001  2.783251e+001
    endloop
  endfacet
  facet normal  2.303708e-006  8.660221e-001 -5.000057e-001
    outer loop
      vertex  0.000000e+000  3.464102e+000  3.000000e+000
      vertex  8.223212e+001  1.780116e+001  2.783251e+001
      vertex  8.242154e+001  1.772343e+001  2.769789e+001
    endloop
  endfacet
  facet normal  4.104460e-007  8.660249e-001 -5.000010e-001
    outer loop
      vertex  0.000000e+000  3.464102e+000  3.000000e+000
      vertex  8.242154e+001  1.772343e+001  2.769789e+001
      vertex  8.263764e+001  1.766568e+001  2.759785e+001
    endloop
  endfacet
  facet normal -4.701374e-006  8.660322e-001 -4.999881e-001
    outer loop
      vertex  0.000000e+000  3.464102e+000  3.000000e+000
      vertex  8.263764e+001  1.766568e+001  2.759785e+001
      vertex  8.287214e+001  1.763011e+001  2.753625e+001
    endloop
  endfacet
  facet normal  5.230800e-006  8.660177e-001 -5.000132e-001
    outer loop
      vertex  0.000000e+000  3.464102e+000  3.000000e+000
      vertex  8.287214e+001  1.763011e+001  2.753625e+001
      vertex  8.311600e+001  1.761810e+001  2.751545e+001
    endloop
  endfacet
  facet normal -9.492670e-006  8.660393e-001 -4.999759e-001
    outer loop
      vertex  0.000000e+000  3.464102e+000  3.000000e+000
      vertex  8.311600e+001  1.761810e+001  2.751545e+001
      vertex  8.335986e+001  1.763011e+001  2.753625e+001
    endloop
  endfacet
  facet normal  2.141157e-006  8.660346e-001 -4.999841e-001
    outer loop
      vertex  0.000000e+000  2.374310e+001  3.812426e+001
      vertex  8.311600e+001  1.886810e+001  2.968051e+001
      vertex  8.287214e+001  1.885609e+001  2.965971e+001
    endloop
  endfacet
  facet normal -6.406894e-007  8.660227e-001 -5.000045e-001
    outer loop
      vertex  0.000000e+000  2.374310e+001  3.812426e+001
      vertex  8.287214e+001  1.885609e+001  2.965971e+001
      vertex  8.263764e+001  1.882053e+001  2.959811e+001
    endloop
  endfacet
  facet normal -1.914785e-007  8.660247e-001 -5.000014e-001
    outer loop
      vertex  0.000000e+000  2.374310e+001  3.812426e+001
      vertex  8.263764e+001  1.882053e+001  2.959811e+001
      vertex  8.242154e+001  1.876277e+001  2.949807e+001
    endloop
  endfacet
  facet normal  1.175918e-007  8.660259e-001 -4.999991e-001
    outer loop
      vertex  0.000000e+000  2.374310e+001  3.812426e+001
      vertex  8.242154e+001  1.876277e+001  2.949807e+001
      vertex  8.223212e+001  1.868504e+001  2.936345e+001
    endloop
  endfacet
  facet normal  5.630600e-007  8.660277e-001 -4.999959e-001
    outer loop
      vertex  0.000000e+000  2.374310e+001  3.812426e+001
      vertex  8.223212e+001  1.868504e+001  2.936345e+001
      vertex  8.207666e+001  1.859033e+001  2.919940e+001
    endloop
  endfacet
  facet normal -9.447074e-008  8.660250e-001 -5.000005e-001
    outer loop
      vertex  0.000000e+000  2.374310e+001  3.812426e+001
      vertex  8.207666e+001  1.859033e+001  2.919940e+001
      vertex  8.196115e+001  1.848228e+001  2.901225e+001
    endloop
  endfacet
  facet normal -4.716386e-007  8.660237e-001 -5.000030e-001
    outer loop
      vertex  0.000000e+000  2.374310e+001  3.812426e+001
      vertex  8.196115e+001  1.848228e+001  2.901225e+001
      vertex  8.189001e+001  1.836503e+001  2.880917e+001
    endloop
  endfacet
  facet normal  8.839819e-008  8.660258e-001 -4.999993e-001
    outer loop
      vertex  0.000000e+000  2.374310e+001  3.812426e+001
      vertex  8.189001e+001  1.836503e+001  2.880917e+001
      vertex  8.186600e+001  1.824310e+001  2.859798e+001
    endloop
  endfacet
  facet normal  1.209878e-008  8.660254e-001 -4.999998e-001
    outer loop
      vertex  0.000000e+000  2.374310e+001  3.812426e+001
      vertex  8.186600e+001  1.824310e+001  2.859798e+001
      vertex  5.039337e+000  1.859033e+001  2.919940e+001
    endloop
  endfacet
  facet normal -1.491313e-005  8.660219e-001 -5.000062e-001
    outer loop
      vertex  0.000000e+000  2.374310e+001  3.812426e+001
      vertex  5.039337e+000  1.859033e+001  2.919940e+001
      vertex  4.883883e+000  1.868504e+001  2.936345e+001
    endloop
  endfacet
  facet normal -1.545513e-006  8.660251e-001 -5.000006e-001
    outer loop
      vertex  0.000000e+000  2.374310e+001  3.812426e+001
      vertex  4.883883e+000  1.868504e+001  2.936345e+001
      vertex  4.694463e+000  1.876277e+001  2.949807e+001
    endloop
  endfacet
  facet normal  1.406544e-006  8.660257e-001 -4.999994e-001
    outer loop
      vertex  0.000000e+000  2.374310e+001  3.812426e+001
      vertex  4.694463e+000  1.876277e+001  2.949807e+001
      vertex  4.478354e+000  1.882053e+001  2.959811e+001
    endloop
  endfacet
  facet normal  2.635717e-006  8.660260e-001 -4.999989e-001
    outer loop
      vertex  0.000000e+000  2.374310e+001  3.812426e+001
      vertex  4.478354e+000  1.882053e+001  2.959811e+001
      vertex  4.243863e+000  1.885609e+001  2.965971e+001
    endloop
  endfacet
  facet normal -4.101496e-006  8.660245e-001 -5.000014e-001
    outer loop
      vertex  0.000000e+000  2.374310e+001  3.812426e+001
      vertex  4.243863e+000  1.885609e+001  2.965971e+001
      vertex  4.000000e+000  1.886810e+001  2.968051e+001
    endloop
  endfacet
  facet normal  3.785921e-006  8.660262e-001 -4.999987e-001
    outer loop
      vertex  0.000000e+000  2.374310e+001  3.812426e+001
      vertex  4.000000e+000  1.886810e+001  2.968051e+001
      vertex  3.756137e+000  1.885609e+001  2.965971e+001
    endloop
  endfacet
  facet normal -2.049627e-006  8.660251e-001 -5.000006e-001
    outer loop
      vertex  0.000000e+000  2.374310e+001  3.812426e+001
      vertex  3.756137e+000  1.885609e+001  2.965971e+001
      vertex  3.521646e+000  1.882053e+001  2.959811e+001
    endloop
  endfacet
  facet normal -8.819289e-007  8.660253e-001 -5.000002e-001
    outer loop
      vertex  0.000000e+000  2.374310e+001  3.812426e+001
      vertex  3.521646e+000  1.882053e+001  2.959811e+001
      vertex  3.305537e+000  1.876277e+001  2.949807e+001
    endloop
  endfacet
  facet normal  7.200393e-007  8.660256e-001 -4.999997e-001
    outer loop
      vertex  0.000000e+000  2.374310e+001  3.812426e+001
      vertex  3.305537e+000  1.876277e+001  2.949807e+001
      vertex  3.116117e+000  1.868504e+001  2.936345e+001
    endloop
  endfacet
  facet normal  4.464475e-006  8.660260e-001 -4.999987e-001
    outer loop
      vertex  0.000000e+000  2.374310e+001  3.812426e+001
      vertex  3.116117e+000  1.868504e+001  2.936345e+001
      vertex  2.960663e+000  1.859033e+001  2.919940e+001
    endloop
  endfacet
  facet normal -9.769927e-007  8.660254e-001 -5.000002e-001
    outer loop
      vertex  0.000000e+000  2.374310e+001  3.812426e+001
      vertex  2.960663e+000  1.859033e+001  2.919940e+001
      vertex  2.845150e+000  1.848228e+001  2.901225e+001
    endloop
  endfacet
  facet normal -6.652717e-006  8.660246e-001 -5.000014e-001
    outer loop
      vertex  0.000000e+000  2.374310e+001  3.812426e+001
      vertex  2.845150e+000  1.848228e+001  2.901225e+001
      vertex  2.774018e+000  1.836503e+001  2.880917e+001
    endloop
  endfacet
  facet normal  1.912811e-006  8.660257e-001 -4.999995e-001
    outer loop
      vertex  0.000000e+000  2.374310e+001  3.812426e+001
      vertex  2.774018e+000  1.836503e+001  2.880917e+001
      vertex  2.750000e+000  1.824310e+001  2.859798e+001
    endloop
  endfacet
  facet normal -1.912832e-006  8.660257e-001 -4.999995e-001
    outer loop
      vertex  8.711600e+001  2.374310e+001  3.812426e+001
      vertex  8.436600e+001  1.824310e+001  2.859798e+001
      vertex  8.434198e+001  1.836503e+001  2.880917e+001
    endloop
  endfacet
  facet normal  6.652886e-006  8.660246e-001 -5.000014e-001
    outer loop
      vertex  8.711600e+001  2.374310e+001  3.812426e+001
      vertex  8.434198e+001  1.836503e+001  2.880917e+001
      vertex  8.427085e+001  1.848228e+001  2.901225e+001
    endloop
  endfacet
  facet normal  9.769703e-007  8.660253e-001 -5.000001e-001
    outer loop
      vertex  8.711600e+001  2.374310e+001  3.812426e+001
      vertex  8.427085e+001  1.848228e+001  2.901225e+001
      vertex  8.415533e+001  1.859033e+001  2.919940e+001
    endloop
  endfacet
  facet normal -4.464572e-006  8.660261e-001 -4.999987e-001
    outer loop
      vertex  8.711600e+001  2.374310e+001  3.812426e+001
      vertex  8.415533e+001  1.859033e+001  2.919940e+001
      vertex  8.399989e+001  1.868504e+001  2.936345e+001
    endloop
  endfacet
  facet normal -7.448625e-007  8.660256e-001 -4.999998e-001
    outer loop
      vertex  8.711600e+001  2.374310e+001  3.812426e+001
      vertex  8.399989e+001  1.868504e+001  2.936345e+001
      vertex  8.381046e+001  1.876277e+001  2.949807e+001
    endloop
  endfacet
  facet normal  8.936822e-007  8.660253e-001 -5.000002e-001
    outer loop
      vertex  8.711600e+001  2.374310e+001  3.812426e+001
      vertex  8.381046e+001  1.876277e+001  2.949807e+001
      vertex  8.359435e+001  1.882053e+001  2.959811e+001
    endloop
  endfacet
  facet normal  2.049642e-006  8.660250e-001 -5.000005e-001
    outer loop
      vertex  8.711600e+001  2.374310e+001  3.812426e+001
      vertex  8.359435e+001  1.882053e+001  2.959811e+001
      vertex  8.335986e+001  1.885609e+001  2.965971e+001
    endloop
  endfacet
  facet normal -3.782863e-006  8.660262e-001 -4.999987e-001
    outer loop
      vertex  8.711600e+001  2.374310e+001  3.812426e+001
      vertex  8.335986e+001  1.885609e+001  2.965971e+001
      vertex  8.311600e+001  1.886810e+001  2.968051e+001
    endloop
  endfacet
  facet normal  0.000000e+000  8.660254e-001 -5.000000e-001
    outer loop
      vertex  8.711600e+001  2.374310e+001  3.812426e+001
      vertex  8.311600e+001  1.886810e+001  2.968051e+001
      vertex  0.000000e+000  2.374310e+001  3.812426e+001
    endloop
  endfacet
  facet normal  0.000000e+000 -8.660241e-001  5.000023e-001
    outer loop
      vertex  5.250000e+000  1.564503e+001  3.009798e+001
      vertex  8.186600e+001  1.564503e+001  3.009798e+001
      vertex  5.225982e+000  1.576696e+001  3.030917e+001
    endloop
  endfacet
  facet normal  0.000000e+000 -8.660258e-001  4.999993e-001
    outer loop
      vertex  5.250000e+000  1.564503e+001  3.009798e+001
      vertex  5.225982e+000  1.552309e+001  2.988679e+001
      vertex  8.186600e+001  1.564503e+001  3.009798e+001
    endloop
  endfacet
  facet normal -8.092110e-009 -8.660254e-001  5.000001e-001
    outer loop
      vertex  8.186600e+001  1.564503e+001  3.009798e+001
      vertex  5.154850e+000  1.588420e+001  3.051225e+001
      vertex  5.225982e+000  1.576696e+001  3.030917e+001
    endloop
  endfacet
  facet normal -2.885943e-008 -8.660270e-001  4.999972e-001
    outer loop
      vertex  8.186600e+001  1.564503e+001  3.009798e+001
      vertex  5.039337e+000  1.599226e+001  3.069940e+001
      vertex  5.154850e+000  1.588420e+001  3.051225e+001
    endloop
  endfacet
  facet normal  0.000000e+000 -8.660254e-001  5.000000e-001
    outer loop
      vertex  8.711600e+001  2.114503e+001  3.962426e+001
      vertex  0.000000e+000  2.114503e+001  3.962426e+001
      vertex  8.311600e+001  1.627003e+001  3.118051e+001
    endloop
  endfacet
  facet normal  3.785875e-006 -8.660262e-001  4.999987e-001
    outer loop
      vertex  8.711600e+001  2.114503e+001  3.962426e+001
      vertex  8.311600e+001  1.627003e+001  3.118051e+001
      vertex  8.335986e+001  1.625802e+001  3.115971e+001
    endloop
  endfacet
  facet normal -2.049642e-006 -8.660250e-001  5.000005e-001
    outer loop
      vertex  8.711600e+001  2.114503e+001  3.962426e+001
      vertex  8.335986e+001  1.625802e+001  3.115971e+001
      vertex  8.359435e+001  1.622245e+001  3.109811e+001
    endloop
  endfacet
  facet normal -8.819232e-007 -8.660253e-001  5.000002e-001
    outer loop
      vertex  8.711600e+001  2.114503e+001  3.962426e+001
      vertex  8.359435e+001  1.622245e+001  3.109811e+001
      vertex  8.381046e+001  1.616469e+001  3.099807e+001
    endloop
  endfacet
  facet normal  7.200337e-007 -8.660256e-001  4.999998e-001
    outer loop
      vertex  8.711600e+001  2.114503e+001  3.962426e+001
      vertex  8.381046e+001  1.616469e+001  3.099807e+001
      vertex  8.399989e+001  1.608697e+001  3.086345e+001
    endloop
  endfacet
  facet normal  6.062995e-007 -8.660255e-001  4.999998e-001
    outer loop
      vertex  8.711600e+001  2.114503e+001  3.962426e+001
      vertex  8.399989e+001  1.608697e+001  3.086345e+001
      vertex  8.415533e+001  1.599226e+001  3.069940e+001
    endloop
  endfacet
  facet normal  3.777622e-006 -8.660260e-001  4.999990e-001
    outer loop
      vertex  8.711600e+001  2.114503e+001  3.962426e+001
      vertex  8.415533e+001  1.599226e+001  3.069940e+001
      vertex  8.427085e+001  1.588420e+001  3.051225e+001
    endloop
  endfacet
  facet normal -5.052830e-007 -8.660254e-001  4.999999e-001
    outer loop
      vertex  8.711600e+001  2.114503e+001  3.962426e+001
      vertex  8.427085e+001  1.588420e+001  3.051225e+001
      vertex  8.434198e+001  1.576696e+001  3.030917e+001
    endloop
  endfacet
  facet normal -7.906361e-006 -8.660244e-001  5.000016e-001
    outer loop
      vertex  8.711600e+001  2.114503e+001  3.962426e+001
      vertex  8.434198e+001  1.576696e+001  3.030917e+001
      vertex  8.436600e+001  1.564503e+001  3.009798e+001
    endloop
  endfacet
  facet normal -2.624093e-007 -8.660254e-001  5.000000e-001
    outer loop
      vertex  8.711600e+001  2.114503e+001  3.962426e+001
      vertex  8.436600e+001  1.564503e+001  3.009798e+001
      vertex  8.711600e+001  3.552714e-015  3.000000e+000
    endloop
  endfacet
  facet normal  5.248185e-007 -8.660254e-001  5.000000e-001
    outer loop
      vertex  0.000000e+000  2.114503e+001  3.962426e+001
      vertex  0.000000e+000  3.552714e-015  3.000000e+000
      vertex  2.750000e+000  1.564503e+001  3.009798e+001
    endloop
  endfacet
  facet normal  7.906273e-006 -8.660245e-001  5.000017e-001
    outer loop
      vertex  0.000000e+000  2.114503e+001  3.962426e+001
      vertex  2.750000e+000  1.564503e+001  3.009798e+001
      vertex  2.774018e+000  1.576696e+001  3.030917e+001
    endloop
  endfacet
  facet normal  5.052701e-007 -8.660254e-001  5.000000e-001
    outer loop
      vertex  0.000000e+000  2.114503e+001  3.962426e+001
      vertex  2.774018e+000  1.576696e+001  3.030917e+001
      vertex  2.845150e+000  1.588420e+001  3.051225e+001
    endloop
  endfacet
  facet normal -3.777708e-006 -8.660260e-001  4.999990e-001
    outer loop
      vertex  0.000000e+000  2.114503e+001  3.962426e+001
      vertex  2.845150e+000  1.588420e+001  3.051225e+001
      vertex  2.960663e+000  1.599226e+001  3.069940e+001
    endloop
  endfacet
  facet normal -6.062863e-007 -8.660255e-001  4.999998e-001
    outer loop
      vertex  0.000000e+000  2.114503e+001  3.962426e+001
      vertex  2.960663e+000  1.599226e+001  3.069940e+001
      vertex  3.116117e+000  1.608697e+001  3.086345e+001
    endloop
  endfacet
  facet normal -7.448682e-007 -8.660256e-001  4.999997e-001
    outer loop
      vertex  0.000000e+000  2.114503e+001  3.962426e+001
      vertex  3.116117e+000  1.608697e+001  3.086345e+001
      vertex  3.305537e+000  1.616469e+001  3.099807e+001
    endloop
  endfacet
  facet normal  8.936879e-007 -8.660253e-001  5.000002e-001
    outer loop
      vertex  0.000000e+000  2.114503e+001  3.962426e+001
      vertex  3.305537e+000  1.616469e+001  3.099807e+001
      vertex  3.521646e+000  1.622245e+001  3.109811e+001
    endloop
  endfacet
  facet normal  2.049627e-006 -8.660251e-001  5.000006e-001
    outer loop
      vertex  0.000000e+000  2.114503e+001  3.962426e+001
      vertex  3.521646e+000  1.622245e+001  3.109811e+001
      vertex  3.756137e+000  1.625802e+001  3.115971e+001
    endloop
  endfacet
  facet normal -3.782909e-006 -8.660262e-001  4.999987e-001
    outer loop
      vertex  0.000000e+000  2.114503e+001  3.962426e+001
      vertex  3.756137e+000  1.625802e+001  3.115971e+001
      vertex  4.000000e+000  1.627003e+001  3.118051e+001
    endloop
  endfacet
  facet normal  4.104761e-006 -8.660246e-001  5.000014e-001
    outer loop
      vertex  0.000000e+000  2.114503e+001  3.962426e+001
      vertex  4.000000e+000  1.627003e+001  3.118051e+001
      vertex  4.243863e+000  1.625802e+001  3.115971e+001
    endloop
  endfacet
  facet normal -2.635718e-006 -8.660261e-001  4.999989e-001
    outer loop
      vertex  0.000000e+000  2.114503e+001  3.962426e+001
      vertex  4.243863e+000  1.625802e+001  3.115971e+001
      vertex  4.478354e+000  1.622245e+001  3.109811e+001
    endloop
  endfacet
  facet normal -1.388037e-006 -8.660257e-001  4.999993e-001
    outer loop
      vertex  0.000000e+000  2.114503e+001  3.962426e+001
      vertex  4.478354e+000  1.622245e+001  3.109811e+001
      vertex  4.694463e+000  1.616469e+001  3.099807e+001
    endloop
  endfacet
  facet normal  1.493996e-006 -8.660251e-001  5.000006e-001
    outer loop
      vertex  0.000000e+000  2.114503e+001  3.962426e+001
      vertex  4.694463e+000  1.616469e+001  3.099807e+001
      vertex  4.883883e+000  1.608697e+001  3.086345e+001
    endloop
  endfacet
  facet normal  2.025246e-006 -8.660250e-001  5.000007e-001
    outer loop
      vertex  0.000000e+000  2.114503e+001  3.962426e+001
      vertex  4.883883e+000  1.608697e+001  3.086345e+001
      vertex  5.039337e+000  1.599226e+001  3.069940e+001
    endloop
  endfacet
  facet normal -6.049387e-010 -8.660254e-001  4.999999e-001
    outer loop
      vertex  0.000000e+000  2.114503e+001  3.962426e+001
      vertex  5.039337e+000  1.599226e+001  3.069940e+001
      vertex  8.186600e+001  1.564503e+001  3.009798e+001
    endloop
  endfacet
  facet normal  3.653785e-007 -8.660241e-001  5.000023e-001
    outer loop
      vertex  0.000000e+000  2.114503e+001  3.962426e+001
      vertex  8.186600e+001  1.564503e+001  3.009798e+001
      vertex  8.189001e+001  1.576696e+001  3.030917e+001
    endloop
  endfacet
  facet normal  3.582073e-008 -8.660254e-001  5.000001e-001
    outer loop
      vertex  0.000000e+000  2.114503e+001  3.962426e+001
      vertex  8.189001e+001  1.576696e+001  3.030917e+001
      vertex  8.196115e+001  1.588420e+001  3.051225e+001
    endloop
  endfacet
  facet normal -3.652876e-007 -8.660269e-001  4.999974e-001
    outer loop
      vertex  0.000000e+000  2.114503e+001  3.962426e+001
      vertex  8.196115e+001  1.588420e+001  3.051225e+001
      vertex  8.207666e+001  1.599226e+001  3.069940e+001
    endloop
  endfacet
  facet normal -7.646477e-008 -8.660257e-001  4.999994e-001
    outer loop
      vertex  0.000000e+000  2.114503e+001  3.962426e+001
      vertex  8.207666e+001  1.599226e+001  3.069940e+001
      vertex  8.223212e+001  1.608697e+001  3.086345e+001
    endloop
  endfacet
  facet normal -1.216466e-007 -8.660259e-001  4.999990e-001
    outer loop
      vertex  0.000000e+000  2.114503e+001  3.962426e+001
      vertex  8.223212e+001  1.608697e+001  3.086345e+001
      vertex  8.242154e+001  1.616469e+001  3.099807e+001
    endloop
  endfacet
  facet normal  1.940315e-007 -8.660247e-001  5.000014e-001
    outer loop
      vertex  0.000000e+000  2.114503e+001  3.962426e+001
      vertex  8.242154e+001  1.616469e+001  3.099807e+001
      vertex  8.263764e+001  1.622245e+001  3.109811e+001
    endloop
  endfacet
  facet normal  6.406894e-007 -8.660227e-001  5.000045e-001
    outer loop
      vertex  0.000000e+000  2.114503e+001  3.962426e+001
      vertex  8.263764e+001  1.622245e+001  3.109811e+001
      vertex  8.287214e+001  1.625802e+001  3.115971e+001
    endloop
  endfacet
  facet normal -2.139453e-006 -8.660346e-001  4.999841e-001
    outer loop
      vertex  0.000000e+000  2.114503e+001  3.962426e+001
      vertex  8.287214e+001  1.625802e+001  3.115971e+001
      vertex  8.311600e+001  1.627003e+001  3.118051e+001
    endloop
  endfacet
  facet normal -3.368499e-005 -8.659787e-001  5.000809e-001
    outer loop
      vertex  0.000000e+000  3.552714e-015  3.000000e+000
      vertex  8.359435e+001  1.506760e+001  2.909785e+001
      vertex  8.335986e+001  1.503203e+001  2.903625e+001
    endloop
  endfacet
  facet normal  4.613379e-006 -8.660318e-001  4.999889e-001
    outer loop
      vertex  0.000000e+000  3.552714e-015  3.000000e+000
      vertex  8.335986e+001  1.503203e+001  2.903625e+001
      vertex  8.311600e+001  1.502003e+001  2.901545e+001
    endloop
  endfacet
  facet normal -2.637577e-006 -8.660218e-001  5.000063e-001
    outer loop
      vertex  0.000000e+000  3.552714e-015  3.000000e+000
      vertex  8.311600e+001  1.502003e+001  2.901545e+001
      vertex  8.287214e+001  1.503203e+001  2.903625e+001
    endloop
  endfacet
  facet normal  2.914647e-006 -8.660295e-001  4.999931e-001
    outer loop
      vertex  0.000000e+000  3.552714e-015  3.000000e+000
      vertex  8.287214e+001  1.503203e+001  2.903625e+001
      vertex  8.263764e+001  1.506760e+001  2.909785e+001
    endloop
  endfacet
  facet normal -4.157262e-007 -8.660248e-001  5.000010e-001
    outer loop
      vertex  0.000000e+000  3.552714e-015  3.000000e+000
      vertex  8.263764e+001  1.506760e+001  2.909785e+001
      vertex  8.242154e+001  1.512536e+001  2.919789e+001
    endloop
  endfacet
  facet normal -1.054330e-006 -8.660240e-001  5.000024e-001
    outer loop
      vertex  0.000000e+000  3.552714e-015  3.000000e+000
      vertex  8.242154e+001  1.512536e+001  2.919789e+001
      vertex  8.223212e+001  1.520308e+001  2.933251e+001
    endloop
  endfacet
  facet normal  2.231139e-007 -8.660257e-001  4.999995e-001
    outer loop
      vertex  0.000000e+000  3.552714e-015  3.000000e+000
      vertex  8.223212e+001  1.520308e+001  2.933251e+001
      vertex  8.207666e+001  1.529779e+001  2.949656e+001
    endloop
  endfacet
  facet normal -3.810845e-007 -8.660249e-001  5.000009e-001
    outer loop
      vertex  0.000000e+000  3.552714e-015  3.000000e+000
      vertex  8.207666e+001  1.529779e+001  2.949656e+001
      vertex  8.196115e+001  1.540585e+001  2.968371e+001
    endloop
  endfacet
  facet normal -3.340597e-008 -8.660254e-001  5.000001e-001
    outer loop
      vertex  0.000000e+000  3.552714e-015  3.000000e+000
      vertex  8.196115e+001  1.540585e+001  2.968371e+001
      vertex  8.189001e+001  1.552309e+001  2.988679e+001
    endloop
  endfacet
  facet normal  2.762199e-007 -8.660257e-001  4.999994e-001
    outer loop
      vertex  0.000000e+000  3.552714e-015  3.000000e+000
      vertex  8.189001e+001  1.552309e+001  2.988679e+001
      vertex  8.186600e+001  1.564503e+001  3.009798e+001
    endloop
  endfacet
  facet normal -2.305880e-009 -8.660254e-001  4.999999e-001
    outer loop
      vertex  0.000000e+000  3.552714e-015  3.000000e+000
      vertex  8.186600e+001  1.564503e+001  3.009798e+001
      vertex  5.225982e+000  1.552309e+001  2.988679e+001
    endloop
  endfacet
  facet normal  7.276729e-007 -8.660256e-001  4.999999e-001
    outer loop
      vertex  0.000000e+000  3.552714e-015  3.000000e+000
      vertex  5.225982e+000  1.552309e+001  2.988679e+001
      vertex  5.154850e+000  1.540585e+001  2.968371e+001
    endloop
  endfacet
  facet normal  3.217750e-006 -8.660257e-001  4.999995e-001
    outer loop
      vertex  0.000000e+000  3.552714e-015  3.000000e+000
      vertex  5.154850e+000  1.540585e+001  2.968371e+001
      vertex  5.039337e+000  1.529779e+001  2.949656e+001
    endloop
  endfacet
  facet normal -1.191578e-006 -8.660253e-001  5.000001e-001
    outer loop
      vertex  0.000000e+000  3.552714e-015  3.000000e+000
      vertex  5.039337e+000  1.529779e+001  2.949656e+001
      vertex  4.883883e+000  1.520308e+001  2.933251e+001
    endloop
  endfacet
  facet normal  3.862118e-006 -8.660257e-001  4.999995e-001
    outer loop
      vertex  0.000000e+000  3.552714e-015  3.000000e+000
      vertex  4.883883e+000  1.520308e+001  2.933251e+001
      vertex  4.694463e+000  1.512536e+001  2.919789e+001
    endloop
  endfacet
  facet normal  1.133402e-006 -8.660255e-001  4.999999e-001
    outer loop
      vertex  0.000000e+000  3.552714e-015  3.000000e+000
      vertex  4.694463e+000  1.512536e+001  2.919789e+001
      vertex  4.478354e+000  1.506760e+001  2.909785e+001
    endloop
  endfacet
  facet normal -5.591342e-006 -8.660250e-001  5.000007e-001
    outer loop
      vertex  0.000000e+000  3.552714e-015  3.000000e+000
      vertex  4.478354e+000  1.506760e+001  2.909785e+001
      vertex  4.243863e+000  1.503203e+001  2.903625e+001
    endloop
  endfacet
  facet normal  3.400874e-006 -8.660257e-001  4.999996e-001
    outer loop
      vertex  0.000000e+000  3.552714e-015  3.000000e+000
      vertex  4.243863e+000  1.503203e+001  2.903625e+001
      vertex  4.000000e+000  1.502003e+001  2.901545e+001
    endloop
  endfacet
  facet normal -3.312831e-006 -8.660251e-001  5.000004e-001
    outer loop
      vertex  0.000000e+000  3.552714e-015  3.000000e+000
      vertex  4.000000e+000  1.502003e+001  2.901545e+001
      vertex  3.756137e+000  1.503203e+001  2.903625e+001
    endloop
  endfacet
  facet normal  5.156486e-006 -8.660258e-001  4.999995e-001
    outer loop
      vertex  0.000000e+000  3.552714e-015  3.000000e+000
      vertex  3.756137e+000  1.503203e+001  2.903625e+001
      vertex  3.521646e+000  1.506760e+001  2.909785e+001
    endloop
  endfacet
  facet normal -9.648013e-007 -8.660253e-001  5.000001e-001
    outer loop
      vertex  0.000000e+000  3.552714e-015  3.000000e+000
      vertex  3.521646e+000  1.506760e+001  2.909785e+001
      vertex  3.305537e+000  1.512536e+001  2.919789e+001
    endloop
  endfacet
  facet normal -3.131073e-006 -8.660252e-001  5.000002e-001
    outer loop
      vertex  0.000000e+000  3.552714e-015  3.000000e+000
      vertex  3.305537e+000  1.512536e+001  2.919789e+001
      vertex  3.116117e+000  1.520308e+001  2.933251e+001
    endloop
  endfacet
  facet normal  8.519751e-007 -8.660254e-001  4.999999e-001
    outer loop
      vertex  0.000000e+000  3.552714e-015  3.000000e+000
      vertex  3.116117e+000  1.520308e+001  2.933251e+001
      vertex  2.960663e+000  1.529779e+001  2.949656e+001
    endloop
  endfacet
  facet normal -1.942078e-006 -8.660253e-001  5.000002e-001
    outer loop
      vertex  0.000000e+000  3.552714e-015  3.000000e+000
      vertex  2.960663e+000  1.529779e+001  2.949656e+001
      vertex  2.845150e+000  1.540585e+001  2.968371e+001
    endloop
  endfacet
  facet normal -2.501886e-007 -8.660254e-001  5.000001e-001
    outer loop
      vertex  0.000000e+000  3.552714e-015  3.000000e+000
      vertex  2.845150e+000  1.540585e+001  2.968371e+001
      vertex  2.774018e+000  1.552309e+001  2.988679e+001
    endloop
  endfacet
  facet normal  4.023503e-006 -8.660255e-001  4.999997e-001
    outer loop
      vertex  0.000000e+000  3.552714e-015  3.000000e+000
      vertex  2.774018e+000  1.552309e+001  2.988679e+001
      vertex  2.750000e+000  1.564503e+001  3.009798e+001
    endloop
  endfacet
  facet normal -3.855938e-006 -8.660256e-001  4.999997e-001
    outer loop
      vertex  8.711600e+001  3.552714e-015  3.000000e+000
      vertex  8.436600e+001  1.564503e+001  3.009798e+001
      vertex  8.434198e+001  1.552309e+001  2.988679e+001
    endloop
  endfacet
  facet normal  2.501977e-007 -8.660254e-001  5.000001e-001
    outer loop
      vertex  8.711600e+001  3.552714e-015  3.000000e+000
      vertex  8.434198e+001  1.552309e+001  2.988679e+001
      vertex  8.427085e+001  1.540585e+001  2.968371e+001
    endloop
  endfacet
  facet normal  1.884902e-006 -8.660253e-001  5.000002e-001
    outer loop
      vertex  8.711600e+001  3.552714e-015  3.000000e+000
      vertex  8.427085e+001  1.540585e+001  2.968371e+001
      vertex  8.415533e+001  1.529779e+001  2.949656e+001
    endloop
  endfacet
  facet normal -8.519974e-007 -8.660255e-001  5.000000e-001
    outer loop
      vertex  8.711600e+001  3.552714e-015  3.000000e+000
      vertex  8.415533e+001  1.529779e+001  2.949656e+001
      vertex  8.399989e+001  1.520308e+001  2.933251e+001
    endloop
  endfacet
  facet normal  3.092861e-006 -8.660253e-001  5.000003e-001
    outer loop
      vertex  8.711600e+001  3.552714e-015  3.000000e+000
      vertex  8.399989e+001  1.520308e+001  2.933251e+001
      vertex  8.381046e+001  1.512536e+001  2.919789e+001
    endloop
  endfacet
  facet normal  9.820227e-007 -8.660253e-001  5.000000e-001
    outer loop
      vertex  8.711600e+001  3.552714e-015  3.000000e+000
      vertex  8.381046e+001  1.512536e+001  2.919789e+001
      vertex  8.359435e+001  1.506760e+001  2.909785e+001
    endloop
  endfacet
  facet normal  0.000000e+000 -8.660254e-001  4.999999e-001
    outer loop
      vertex  8.711600e+001  3.552714e-015  3.000000e+000
      vertex  8.359435e+001  1.506760e+001  2.909785e+001
      vertex  0.000000e+000  3.552714e-015  3.000000e+000
    endloop
  endfacet
  facet normal -9.801837e-002 -4.975924e-001 -8.618551e-001
    outer loop
      vertex  8.311600e+001  1.627003e+001  3.118051e+001
      vertex  8.335986e+001  1.885609e+001  2.965971e+001
      vertex  8.335986e+001  1.625802e+001  3.115971e+001
    endloop
  endfacet
  facet normal -2.902851e-001 -4.784702e-001 -8.287345e-001
    outer loop
      vertex  8.335986e+001  1.625802e+001  3.115971e+001
      vertex  8.335986e+001  1.885609e+001  2.965971e+001
      vertex  8.359435e+001  1.882053e+001  2.959811e+001
    endloop
  endfacet
  facet normal -2.902851e-001 -4.784702e-001 -8.287345e-001
    outer loop
      vertex  8.335986e+001  1.625802e+001  3.115971e+001
      vertex  8.359435e+001  1.882053e+001  2.959811e+001
      vertex  8.359435e+001  1.622245e+001  3.109811e+001
    endloop
  endfacet
  facet normal -4.713943e-001 -4.409614e-001 -7.637674e-001
    outer loop
      vertex  8.359435e+001  1.622245e+001  3.109811e+001
      vertex  8.359435e+001  1.882053e+001  2.959811e+001
      vertex  8.381046e+001  1.876277e+001  2.949807e+001
    endloop
  endfacet
  facet normal -4.713943e-001 -4.409614e-001 -7.637674e-001
    outer loop
      vertex  8.359435e+001  1.622245e+001  3.109811e+001
      vertex  8.381046e+001  1.876277e+001  2.949807e+001
      vertex  8.381046e+001  1.616469e+001  3.099807e+001
    endloop
  endfacet
  facet normal -6.343883e-001 -3.865073e-001 -6.694502e-001
    outer loop
      vertex  8.381046e+001  1.616469e+001  3.099807e+001
      vertex  8.381046e+001  1.876277e+001  2.949807e+001
      vertex  8.399989e+001  1.868504e+001  2.936345e+001
    endloop
  endfacet
  facet normal -6.343883e-001 -3.865073e-001 -6.694502e-001
    outer loop
      vertex  8.381046e+001  1.616469e+001  3.099807e+001
      vertex  8.399989e+001  1.868504e+001  2.936345e+001
      vertex  8.399989e+001  1.608697e+001  3.086345e+001
    endloop
  endfacet
  facet normal -7.730192e-001 -3.171913e-001 -5.493914e-001
    outer loop
      vertex  8.399989e+001  1.608697e+001  3.086345e+001
      vertex  8.399989e+001  1.868504e+001  2.936345e+001
      vertex  8.415533e+001  1.859033e+001  2.919940e+001
    endloop
  endfacet
  facet normal -7.730203e-001 -3.171907e-001 -5.493905e-001
    outer loop
      vertex  8.399989e+001  1.608697e+001  3.086345e+001
      vertex  8.415533e+001  1.859033e+001  2.919940e+001
      vertex  8.415533e+001  1.599226e+001  3.069940e+001
    endloop
  endfacet
  facet normal -8.819155e-001 -2.357038e-001 -4.082510e-001
    outer loop
      vertex  8.415533e+001  1.599226e+001  3.069940e+001
      vertex  8.415533e+001  1.859033e+001  2.919940e+001
      vertex  8.427085e+001  1.848228e+001  2.901225e+001
    endloop
  endfacet
  facet normal -8.819149e-001 -2.357043e-001 -4.082518e-001
    outer loop
      vertex  8.415533e+001  1.599226e+001  3.069940e+001
      vertex  8.427085e+001  1.848228e+001  2.901225e+001
      vertex  8.427085e+001  1.588420e+001  3.051225e+001
    endloop
  endfacet
  facet normal -9.569443e-001 -1.451358e-001 -2.513826e-001
    outer loop
      vertex  8.427085e+001  1.588420e+001  3.051225e+001
      vertex  8.427085e+001  1.848228e+001  2.901225e+001
      vertex  8.434198e+001  1.836503e+001  2.880917e+001
    endloop
  endfacet
  facet normal -9.569440e-001 -1.451362e-001 -2.513832e-001
    outer loop
      vertex  8.427085e+001  1.588420e+001  3.051225e+001
      vertex  8.434198e+001  1.836503e+001  2.880917e+001
      vertex  8.434198e+001  1.576696e+001  3.030917e+001
    endloop
  endfacet
  facet normal -9.951851e-001 -4.900653e-002 -8.488176e-002
    outer loop
      vertex  8.434198e+001  1.576696e+001  3.030917e+001
      vertex  8.434198e+001  1.836503e+001  2.880917e+001
      vertex  8.436600e+001  1.824310e+001  2.859798e+001
    endloop
  endfacet
  facet normal -9.951851e-001 -4.900641e-002 -8.488157e-002
    outer loop
      vertex  8.434198e+001  1.576696e+001  3.030917e+001
      vertex  8.436600e+001  1.824310e+001  2.859798e+001
      vertex  8.436600e+001  1.564503e+001  3.009798e+001
    endloop
  endfacet
  facet normal -9.801837e-002 -4.975924e-001 -8.618551e-001
    outer loop
      vertex  8.335986e+001  1.885609e+001  2.965971e+001
      vertex  8.311600e+001  1.627003e+001  3.118051e+001
      vertex  8.311600e+001  1.886810e+001  2.968051e+001
    endloop
  endfacet
  facet normal  9.802141e-002 -4.975922e-001 -8.618549e-001
    outer loop
      vertex  8.311600e+001  1.886810e+001  2.968051e+001
      vertex  8.311600e+001  1.627003e+001  3.118051e+001
      vertex  8.287214e+001  1.625802e+001  3.115971e+001
    endloop
  endfacet
  facet normal  9.802141e-002 -4.975922e-001 -8.618549e-001
    outer loop
      vertex  8.311600e+001  1.886810e+001  2.968051e+001
      vertex  8.287214e+001  1.625802e+001  3.115971e+001
      vertex  8.287214e+001  1.885609e+001  2.965971e+001
    endloop
  endfacet
  facet normal  2.902765e-001 -4.784715e-001 -8.287368e-001
    outer loop
      vertex  8.287214e+001  1.885609e+001  2.965971e+001
      vertex  8.287214e+001  1.625802e+001  3.115971e+001
      vertex  8.263764e+001  1.622245e+001  3.109811e+001
    endloop
  endfacet
  facet normal  2.902765e-001 -4.784715e-001 -8.287368e-001
    outer loop
      vertex  8.287214e+001  1.885609e+001  2.965971e+001
      vertex  8.263764e+001  1.622245e+001  3.109811e+001
      vertex  8.263764e+001  1.882053e+001  2.959811e+001
    endloop
  endfacet
  facet normal  4.714069e-001 -4.409579e-001 -7.637615e-001
    outer loop
      vertex  8.263764e+001  1.882053e+001  2.959811e+001
      vertex  8.263764e+001  1.622245e+001  3.109811e+001
      vertex  8.242154e+001  1.616469e+001  3.099807e+001
    endloop
  endfacet
  facet normal  4.714069e-001 -4.409579e-001 -7.637615e-001
    outer loop
      vertex  8.263764e+001  1.882053e+001  2.959811e+001
      vertex  8.242154e+001  1.616469e+001  3.099807e+001
      vertex  8.242154e+001  1.876277e+001  2.949807e+001
    endloop
  endfacet
  facet normal  6.343883e-001 -3.865073e-001 -6.694502e-001
    outer loop
      vertex  8.242154e+001  1.876277e+001  2.949807e+001
      vertex  8.242154e+001  1.616469e+001  3.099807e+001
      vertex  8.223212e+001  1.608697e+001  3.086345e+001
    endloop
  endfacet
  facet normal  6.343883e-001 -3.865073e-001 -6.694502e-001
    outer loop
      vertex  8.242154e+001  1.876277e+001  2.949807e+001
      vertex  8.223212e+001  1.608697e+001  3.086345e+001
      vertex  8.223212e+001  1.868504e+001  2.936345e+001
    endloop
  endfacet
  facet normal  7.730049e-001 -3.172001e-001 -5.494066e-001
    outer loop
      vertex  8.223212e+001  1.868504e+001  2.936345e+001
      vertex  8.223212e+001  1.608697e+001  3.086345e+001
      vertex  8.207666e+001  1.599226e+001  3.069940e+001
    endloop
  endfacet
  facet normal  7.730042e-001 -3.172004e-001 -5.494074e-001
    outer loop
      vertex  8.223212e+001  1.868504e+001  2.936345e+001
      vertex  8.207666e+001  1.599226e+001  3.069940e+001
      vertex  8.207666e+001  1.859033e+001  2.919940e+001
    endloop
  endfacet
  facet normal  8.819280e-001 -2.356921e-001 -4.082308e-001
    outer loop
      vertex  8.207666e+001  1.859033e+001  2.919940e+001
      vertex  8.207666e+001  1.599226e+001  3.069940e+001
      vertex  8.196115e+001  1.588420e+001  3.051225e+001
    endloop
  endfacet
  facet normal  8.819283e-001 -2.356918e-001 -4.082300e-001
    outer loop
      vertex  8.207666e+001  1.859033e+001  2.919940e+001
      vertex  8.196115e+001  1.588420e+001  3.051225e+001
      vertex  8.196115e+001  1.848228e+001  2.901225e+001
    endloop
  endfacet
  facet normal  9.569355e-001 -1.451504e-001 -2.514079e-001
    outer loop
      vertex  8.196115e+001  1.848228e+001  2.901225e+001
      vertex  8.196115e+001  1.588420e+001  3.051225e+001
      vertex  8.189001e+001  1.576696e+001  3.030917e+001
    endloop
  endfacet
  facet normal  9.569356e-001 -1.451502e-001 -2.514074e-001
    outer loop
      vertex  8.196115e+001  1.848228e+001  2.901225e+001
      vertex  8.189001e+001  1.576696e+001  3.030917e+001
      vertex  8.189001e+001  1.836503e+001  2.880917e+001
    endloop
  endfacet
  facet normal  9.951851e-001 -4.900642e-002 -8.488157e-002
    outer loop
      vertex  8.189001e+001  1.836503e+001  2.880917e+001
      vertex  8.189001e+001  1.576696e+001  3.030917e+001
      vertex  8.186600e+001  1.564503e+001  3.009798e+001
    endloop
  endfacet
  facet normal  9.951851e-001 -4.900650e-002 -8.488174e-002
    outer loop
      vertex  8.189001e+001  1.836503e+001  2.880917e+001
      vertex  8.186600e+001  1.564503e+001  3.009798e+001
      vertex  8.186600e+001  1.824310e+001  2.859798e+001
    endloop
  endfacet
  facet normal  9.801657e-002  4.975923e-001  8.618554e-001
    outer loop
      vertex  8.311600e+001  1.502003e+001  2.901545e+001
      vertex  8.287214e+001  1.763011e+001  2.753625e+001
      vertex  8.287214e+001  1.503203e+001  2.903625e+001
    endloop
  endfacet
  facet normal  2.902791e-001  4.784709e-001  8.287362e-001
    outer loop
      vertex  8.287214e+001  1.503203e+001  2.903625e+001
      vertex  8.287214e+001  1.763011e+001  2.753625e+001
      vertex  8.263764e+001  1.766568e+001  2.759785e+001
    endloop
  endfacet
  facet normal  2.902809e-001  4.784708e-001  8.287356e-001
    outer loop
      vertex  8.287214e+001  1.503203e+001  2.903625e+001
      vertex  8.263764e+001  1.766568e+001  2.759785e+001
      vertex  8.263764e+001  1.506760e+001  2.909785e+001
    endloop
  endfacet
  facet normal  4.714069e-001  4.409579e-001  7.637615e-001
    outer loop
      vertex  8.263764e+001  1.506760e+001  2.909785e+001
      vertex  8.263764e+001  1.766568e+001  2.759785e+001
      vertex  8.242154e+001  1.772343e+001  2.769789e+001
    endloop
  endfacet
  facet normal  4.714069e-001  4.409579e-001  7.637615e-001
    outer loop
      vertex  8.263764e+001  1.506760e+001  2.909785e+001
      vertex  8.242154e+001  1.772343e+001  2.769789e+001
      vertex  8.242154e+001  1.512536e+001  2.919789e+001
    endloop
  endfacet
  facet normal  6.343906e-001  3.865063e-001  6.694486e-001
    outer loop
      vertex  8.242154e+001  1.512536e+001  2.919789e+001
      vertex  8.242154e+001  1.772343e+001  2.769789e+001
      vertex  8.223212e+001  1.780116e+001  2.783251e+001
    endloop
  endfacet
  facet normal  6.343893e-001  3.865068e-001  6.694495e-001
    outer loop
      vertex  8.242154e+001  1.512536e+001  2.919789e+001
      vertex  8.223212e+001  1.780116e+001  2.783251e+001
      vertex  8.223212e+001  1.520308e+001  2.933251e+001
    endloop
  endfacet
  facet normal  7.730042e-001  3.172004e-001  5.494074e-001
    outer loop
      vertex  8.223212e+001  1.520308e+001  2.933251e+001
      vertex  8.223212e+001  1.780116e+001  2.783251e+001
      vertex  8.207666e+001  1.789587e+001  2.799656e+001
    endloop
  endfacet
  facet normal  7.730049e-001  3.172001e-001  5.494066e-001
    outer loop
      vertex  8.223212e+001  1.520308e+001  2.933251e+001
      vertex  8.207666e+001  1.789587e+001  2.799656e+001
      vertex  8.207666e+001  1.529779e+001  2.949656e+001
    endloop
  endfacet
  facet normal  8.819268e-001  2.356932e-001  4.082325e-001
    outer loop
      vertex  8.207666e+001  1.529779e+001  2.949656e+001
      vertex  8.207666e+001  1.789587e+001  2.799656e+001
      vertex  8.196115e+001  1.800393e+001  2.818371e+001
    endloop
  endfacet
  facet normal  8.819264e-001  2.356935e-001  4.082332e-001
    outer loop
      vertex  8.207666e+001  1.529779e+001  2.949656e+001
      vertex  8.196115e+001  1.800393e+001  2.818371e+001
      vertex  8.196115e+001  1.540585e+001  2.968371e+001
    endloop
  endfacet
  facet normal  9.569353e-001  1.451507e-001  2.514084e-001
    outer loop
      vertex  8.196115e+001  1.540585e+001  2.968371e+001
      vertex  8.196115e+001  1.800393e+001  2.818371e+001
      vertex  8.189001e+001  1.812117e+001  2.838679e+001
    endloop
  endfacet
  facet normal  9.569355e-001  1.451504e-001  2.514079e-001
    outer loop
      vertex  8.196115e+001  1.540585e+001  2.968371e+001
      vertex  8.189001e+001  1.812117e+001  2.838679e+001
      vertex  8.189001e+001  1.552309e+001  2.988679e+001
    endloop
  endfacet
  facet normal  9.951851e-001  4.900650e-002  8.488174e-002
    outer loop
      vertex  8.189001e+001  1.552309e+001  2.988679e+001
      vertex  8.189001e+001  1.812117e+001  2.838679e+001
      vertex  8.186600e+001  1.824310e+001  2.859798e+001
    endloop
  endfacet
  facet normal  9.951851e-001  4.900650e-002  8.488174e-002
    outer loop
      vertex  8.189001e+001  1.552309e+001  2.988679e+001
      vertex  8.186600e+001  1.824310e+001  2.859798e+001
      vertex  8.186600e+001  1.564503e+001  3.009798e+001
    endloop
  endfacet
  facet normal  9.801852e-002  4.975924e-001  8.618551e-001
    outer loop
      vertex  8.287214e+001  1.763011e+001  2.753625e+001
      vertex  8.311600e+001  1.502003e+001  2.901545e+001
      vertex  8.311600e+001  1.761810e+001  2.751545e+001
    endloop
  endfacet
  facet normal -9.801355e-002  4.975926e-001  8.618556e-001
    outer loop
      vertex  8.311600e+001  1.761810e+001  2.751545e+001
      vertex  8.311600e+001  1.502003e+001  2.901545e+001
      vertex  8.335986e+001  1.503203e+001  2.903625e+001
    endloop
  endfacet
  facet normal -9.801545e-002  4.975924e-001  8.618555e-001
    outer loop
      vertex  8.311600e+001  1.761810e+001  2.751545e+001
      vertex  8.335986e+001  1.503203e+001  2.903625e+001
      vertex  8.335986e+001  1.763011e+001  2.753625e+001
    endloop
  endfacet
  facet normal -2.902898e-001  4.784693e-001  8.287334e-001
    outer loop
      vertex  8.335986e+001  1.763011e+001  2.753625e+001
      vertex  8.335986e+001  1.503203e+001  2.903625e+001
      vertex  8.359435e+001  1.506760e+001  2.909785e+001
    endloop
  endfacet
  facet normal -2.902881e-001  4.784697e-001  8.287337e-001
    outer loop
      vertex  8.335986e+001  1.763011e+001  2.753625e+001
      vertex  8.359435e+001  1.506760e+001  2.909785e+001
      vertex  8.359435e+001  1.766568e+001  2.759785e+001
    endloop
  endfacet
  facet normal -4.713943e-001  4.409614e-001  7.637674e-001
    outer loop
      vertex  8.359435e+001  1.766568e+001  2.759785e+001
      vertex  8.359435e+001  1.506760e+001  2.909785e+001
      vertex  8.381046e+001  1.512536e+001  2.919789e+001
    endloop
  endfacet
  facet normal -4.713943e-001  4.409614e-001  7.637674e-001
    outer loop
      vertex  8.359435e+001  1.766568e+001  2.759785e+001
      vertex  8.381046e+001  1.512536e+001  2.919789e+001
      vertex  8.381046e+001  1.772343e+001  2.769789e+001
    endloop
  endfacet
  facet normal -6.343894e-001  3.865068e-001  6.694494e-001
    outer loop
      vertex  8.381046e+001  1.772343e+001  2.769789e+001
      vertex  8.381046e+001  1.512536e+001  2.919789e+001
      vertex  8.399989e+001  1.520308e+001  2.933251e+001
    endloop
  endfacet
  facet normal -6.343905e-001  3.865063e-001  6.694487e-001
    outer loop
      vertex  8.381046e+001  1.772343e+001  2.769789e+001
      vertex  8.399989e+001  1.520308e+001  2.933251e+001
      vertex  8.399989e+001  1.780116e+001  2.783251e+001
    endloop
  endfacet
  facet normal -7.730203e-001  3.171907e-001  5.493905e-001
    outer loop
      vertex  8.399989e+001  1.780116e+001  2.783251e+001
      vertex  8.399989e+001  1.520308e+001  2.933251e+001
      vertex  8.415533e+001  1.529779e+001  2.949656e+001
    endloop
  endfacet
  facet normal -7.730192e-001  3.171913e-001  5.493914e-001
    outer loop
      vertex  8.399989e+001  1.780116e+001  2.783251e+001
      vertex  8.415533e+001  1.529779e+001  2.949656e+001
      vertex  8.415533e+001  1.789587e+001  2.799656e+001
    endloop
  endfacet
  facet normal -8.819135e-001  2.357057e-001  4.082542e-001
    outer loop
      vertex  8.415533e+001  1.789587e+001  2.799656e+001
      vertex  8.415533e+001  1.529779e+001  2.949656e+001
      vertex  8.427085e+001  1.540585e+001  2.968371e+001
    endloop
  endfacet
  facet normal -8.819138e-001  2.357053e-001  4.082536e-001
    outer loop
      vertex  8.415533e+001  1.789587e+001  2.799656e+001
      vertex  8.427085e+001  1.540585e+001  2.968371e+001
      vertex  8.427085e+001  1.800393e+001  2.818371e+001
    endloop
  endfacet
  facet normal -9.569441e-001  1.451361e-001  2.513832e-001
    outer loop
      vertex  8.427085e+001  1.800393e+001  2.818371e+001
      vertex  8.427085e+001  1.540585e+001  2.968371e+001
      vertex  8.434198e+001  1.552309e+001  2.988679e+001
    endloop
  endfacet
  facet normal -9.569439e-001  1.451364e-001  2.513836e-001
    outer loop
      vertex  8.427085e+001  1.800393e+001  2.818371e+001
      vertex  8.434198e+001  1.552309e+001  2.988679e+001
      vertex  8.434198e+001  1.812117e+001  2.838679e+001
    endloop
  endfacet
  facet normal -9.951851e-001  4.900650e-002  8.488174e-002
    outer loop
      vertex  8.434198e+001  1.812117e+001  2.838679e+001
      vertex  8.434198e+001  1.552309e+001  2.988679e+001
      vertex  8.436600e+001  1.564503e+001  3.009798e+001
    endloop
  endfacet
  facet normal -9.951851e-001  4.900650e-002  8.488174e-002
    outer loop
      vertex  8.434198e+001  1.812117e+001  2.838679e+001
      vertex  8.436600e+001  1.564503e+001  3.009798e+001
      vertex  8.436600e+001  1.824310e+001  2.859798e+001
    endloop
  endfacet
  facet normal -9.801950e-002 -4.975923e-001 -8.618550e-001
    outer loop
      vertex  4.000000e+000  1.627003e+001  3.118051e+001
      vertex  4.243863e+000  1.885609e+001  2.965971e+001
      vertex  4.243863e+000  1.625802e+001  3.115971e+001
    endloop
  endfacet
  facet normal -2.902830e-001 -4.784705e-001 -8.287351e-001
    outer loop
      vertex  4.243863e+000  1.625802e+001  3.115971e+001
      vertex  4.243863e+000  1.885609e+001  2.965971e+001
      vertex  4.478354e+000  1.882053e+001  2.959811e+001
    endloop
  endfacet
  facet normal -2.902830e-001 -4.784705e-001 -8.287351e-001
    outer loop
      vertex  4.243863e+000  1.625802e+001  3.115971e+001
      vertex  4.478354e+000  1.882053e+001  2.959811e+001
      vertex  4.478354e+000  1.622245e+001  3.109811e+001
    endloop
  endfacet
  facet normal -4.713975e-001 -4.409605e-001 -7.637659e-001
    outer loop
      vertex  4.478354e+000  1.622245e+001  3.109811e+001
      vertex  4.478354e+000  1.882053e+001  2.959811e+001
      vertex  4.694463e+000  1.876277e+001  2.949807e+001
    endloop
  endfacet
  facet normal -4.713975e-001 -4.409605e-001 -7.637659e-001
    outer loop
      vertex  4.478354e+000  1.622245e+001  3.109811e+001
      vertex  4.694463e+000  1.876277e+001  2.949807e+001
      vertex  4.694463e+000  1.616469e+001  3.099807e+001
    endloop
  endfacet
  facet normal -6.343921e-001 -3.865058e-001 -6.694475e-001
    outer loop
      vertex  4.694463e+000  1.616469e+001  3.099807e+001
      vertex  4.694463e+000  1.876277e+001  2.949807e+001
      vertex  4.883883e+000  1.868504e+001  2.936345e+001
    endloop
  endfacet
  facet normal -6.343921e-001 -3.865058e-001 -6.694475e-001
    outer loop
      vertex  4.694463e+000  1.616469e+001  3.099807e+001
      vertex  4.883883e+000  1.868504e+001  2.936345e+001
      vertex  4.883883e+000  1.608697e+001  3.086345e+001
    endloop
  endfacet
  facet normal -7.730097e-001 -3.171971e-001 -5.494015e-001
    outer loop
      vertex  4.883883e+000  1.608697e+001  3.086345e+001
      vertex  4.883883e+000  1.868504e+001  2.936345e+001
      vertex  5.039337e+000  1.859033e+001  2.919940e+001
    endloop
  endfacet
  facet normal -7.730106e-001 -3.171965e-001 -5.494005e-001
    outer loop
      vertex  4.883883e+000  1.608697e+001  3.086345e+001
      vertex  5.039337e+000  1.859033e+001  2.919940e+001
      vertex  5.039337e+000  1.599226e+001  3.069940e+001
    endloop
  endfacet
  facet normal -8.819227e-001 -2.356970e-001 -4.082392e-001
    outer loop
      vertex  5.039337e+000  1.599226e+001  3.069940e+001
      vertex  5.039337e+000  1.859033e+001  2.919940e+001
      vertex  5.154850e+000  1.848228e+001  2.901225e+001
    endloop
  endfacet
  facet normal -8.819222e-001 -2.356975e-001 -4.082401e-001
    outer loop
      vertex  5.039337e+000  1.599226e+001  3.069940e+001
      vertex  5.154850e+000  1.848228e+001  2.901225e+001
      vertex  5.154850e+000  1.588420e+001  3.051225e+001
    endloop
  endfacet
  facet normal -9.569404e-001 -1.451421e-001 -2.513934e-001
    outer loop
      vertex  5.154850e+000  1.588420e+001  3.051225e+001
      vertex  5.154850e+000  1.848228e+001  2.901225e+001
      vertex  5.225982e+000  1.836503e+001  2.880917e+001
    endloop
  endfacet
  facet normal -9.569402e-001 -1.451425e-001 -2.513939e-001
    outer loop
      vertex  5.154850e+000  1.588420e+001  3.051225e+001
      vertex  5.225982e+000  1.836503e+001  2.880917e+001
      vertex  5.225982e+000  1.576696e+001  3.030917e+001
    endloop
  endfacet
  facet normal -9.951848e-001 -4.900847e-002 -8.488511e-002
    outer loop
      vertex  5.225982e+000  1.576696e+001  3.030917e+001
      vertex  5.225982e+000  1.836503e+001  2.880917e+001
      vertex  5.250000e+000  1.824310e+001  2.859798e+001
    endloop
  endfacet
  facet normal -9.951848e-001 -4.900834e-002 -8.488491e-002
    outer loop
      vertex  5.225982e+000  1.576696e+001  3.030917e+001
      vertex  5.250000e+000  1.824310e+001  2.859798e+001
      vertex  5.250000e+000  1.564503e+001  3.009798e+001
    endloop
  endfacet
  facet normal -9.801950e-002 -4.975923e-001 -8.618550e-001
    outer loop
      vertex  4.243863e+000  1.885609e+001  2.965971e+001
      vertex  4.000000e+000  1.627003e+001  3.118051e+001
      vertex  4.000000e+000  1.886810e+001  2.968051e+001
    endloop
  endfacet
  facet normal  9.801961e-002 -4.975923e-001 -8.618551e-001
    outer loop
      vertex  4.000000e+000  1.886810e+001  2.968051e+001
      vertex  4.000000e+000  1.627003e+001  3.118051e+001
      vertex  3.756137e+000  1.625802e+001  3.115971e+001
    endloop
  endfacet
  facet normal  9.801961e-002 -4.975923e-001 -8.618551e-001
    outer loop
      vertex  4.000000e+000  1.886810e+001  2.968051e+001
      vertex  3.756137e+000  1.625802e+001  3.115971e+001
      vertex  3.756137e+000  1.885609e+001  2.965971e+001
    endloop
  endfacet
  facet normal  2.902830e-001 -4.784705e-001 -8.287351e-001
    outer loop
      vertex  3.756137e+000  1.885609e+001  2.965971e+001
      vertex  3.756137e+000  1.625802e+001  3.115971e+001
      vertex  3.521646e+000  1.622245e+001  3.109811e+001
    endloop
  endfacet
  facet normal  2.902830e-001 -4.784705e-001 -8.287351e-001
    outer loop
      vertex  3.756137e+000  1.885609e+001  2.965971e+001
      vertex  3.521646e+000  1.622245e+001  3.109811e+001
      vertex  3.521646e+000  1.882053e+001  2.959811e+001
    endloop
  endfacet
  facet normal  4.713968e-001 -4.409606e-001 -7.637661e-001
    outer loop
      vertex  3.521646e+000  1.882053e+001  2.959811e+001
      vertex  3.521646e+000  1.622245e+001  3.109811e+001
      vertex  3.305537e+000  1.616469e+001  3.099807e+001
    endloop
  endfacet
  facet normal  4.713968e-001 -4.409606e-001 -7.637661e-001
    outer loop
      vertex  3.521646e+000  1.882053e+001  2.959811e+001
      vertex  3.305537e+000  1.616469e+001  3.099807e+001
      vertex  3.305537e+000  1.876277e+001  2.949807e+001
    endloop
  endfacet
  facet normal  6.343921e-001 -3.865058e-001 -6.694475e-001
    outer loop
      vertex  3.305537e+000  1.876277e+001  2.949807e+001
      vertex  3.305537e+000  1.616469e+001  3.099807e+001
      vertex  3.116117e+000  1.608697e+001  3.086345e+001
    endloop
  endfacet
  facet normal  6.343921e-001 -3.865058e-001 -6.694475e-001
    outer loop
      vertex  3.305537e+000  1.876277e+001  2.949807e+001
      vertex  3.116117e+000  1.608697e+001  3.086345e+001
      vertex  3.116117e+000  1.868504e+001  2.936345e+001
    endloop
  endfacet
  facet normal  7.730111e-001 -3.171963e-001 -5.494000e-001
    outer loop
      vertex  3.116117e+000  1.868504e+001  2.936345e+001
      vertex  3.116117e+000  1.608697e+001  3.086345e+001
      vertex  2.960663e+000  1.599226e+001  3.069940e+001
    endloop
  endfacet
  facet normal  7.730103e-001 -3.171966e-001 -5.494008e-001
    outer loop
      vertex  3.116117e+000  1.868504e+001  2.936345e+001
      vertex  2.960663e+000  1.599226e+001  3.069940e+001
      vertex  2.960663e+000  1.859033e+001  2.919940e+001
    endloop
  endfacet
  facet normal  8.819219e-001 -2.356978e-001 -4.082406e-001
    outer loop
      vertex  2.960663e+000  1.859033e+001  2.919940e+001
      vertex  2.960663e+000  1.599226e+001  3.069940e+001
      vertex  2.845150e+000  1.588420e+001  3.051225e+001
    endloop
  endfacet
  facet normal  8.819223e-001 -2.356974e-001 -4.082399e-001
    outer loop
      vertex  2.960663e+000  1.859033e+001  2.919940e+001
      vertex  2.845150e+000  1.588420e+001  3.051225e+001
      vertex  2.845150e+000  1.848228e+001  2.901225e+001
    endloop
  endfacet
  facet normal  9.569402e-001 -1.451424e-001 -2.513940e-001
    outer loop
      vertex  2.845150e+000  1.848228e+001  2.901225e+001
      vertex  2.845150e+000  1.588420e+001  3.051225e+001
      vertex  2.774018e+000  1.576696e+001  3.030917e+001
    endloop
  endfacet
  facet normal  9.569405e-001 -1.451422e-001 -2.513935e-001
    outer loop
      vertex  2.845150e+000  1.848228e+001  2.901225e+001
      vertex  2.774018e+000  1.576696e+001  3.030917e+001
      vertex  2.774018e+000  1.836503e+001  2.880917e+001
    endloop
  endfacet
  facet normal  9.951848e-001 -4.900835e-002 -8.488491e-002
    outer loop
      vertex  2.774018e+000  1.836503e+001  2.880917e+001
      vertex  2.774018e+000  1.576696e+001  3.030917e+001
      vertex  2.750000e+000  1.564503e+001  3.009798e+001
    endloop
  endfacet
  facet normal  9.951848e-001 -4.900843e-002 -8.488508e-002
    outer loop
      vertex  2.774018e+000  1.836503e+001  2.880917e+001
      vertex  2.750000e+000  1.564503e+001  3.009798e+001
      vertex  2.750000e+000  1.824310e+001  2.859798e+001
    endloop
  endfacet
  facet normal  9.801476e-002  4.975924e-001  8.618556e-001
    outer loop
      vertex  4.000000e+000  1.502003e+001  2.901545e+001
      vertex  3.756137e+000  1.763011e+001  2.753625e+001
      vertex  3.756137e+000  1.503203e+001  2.903625e+001
    endloop
  endfacet
  facet normal  2.902856e-001  4.784699e-001  8.287345e-001
    outer loop
      vertex  3.756137e+000  1.503203e+001  2.903625e+001
      vertex  3.756137e+000  1.763011e+001  2.753625e+001
      vertex  3.521646e+000  1.766568e+001  2.759785e+001
    endloop
  endfacet
  facet normal  2.902874e-001  4.784698e-001  8.287339e-001
    outer loop
      vertex  3.756137e+000  1.503203e+001  2.903625e+001
      vertex  3.521646e+000  1.766568e+001  2.759785e+001
      vertex  3.521646e+000  1.506760e+001  2.909785e+001
    endloop
  endfacet
  facet normal  4.713968e-001  4.409606e-001  7.637661e-001
    outer loop
      vertex  3.521646e+000  1.506760e+001  2.909785e+001
      vertex  3.521646e+000  1.766568e+001  2.759785e+001
      vertex  3.305537e+000  1.772343e+001  2.769789e+001
    endloop
  endfacet
  facet normal  4.713968e-001  4.409606e-001  7.637661e-001
    outer loop
      vertex  3.521646e+000  1.506760e+001  2.909785e+001
      vertex  3.305537e+000  1.772343e+001  2.769789e+001
      vertex  3.305537e+000  1.512536e+001  2.919789e+001
    endloop
  endfacet
  facet normal  6.343944e-001  3.865048e-001  6.694459e-001
    outer loop
      vertex  3.305537e+000  1.512536e+001  2.919789e+001
      vertex  3.305537e+000  1.772343e+001  2.769789e+001
      vertex  3.116117e+000  1.780116e+001  2.783251e+001
    endloop
  endfacet
  facet normal  6.343932e-001  3.865052e-001  6.694468e-001
    outer loop
      vertex  3.305537e+000  1.512536e+001  2.919789e+001
      vertex  3.116117e+000  1.780116e+001  2.783251e+001
      vertex  3.116117e+000  1.520308e+001  2.933251e+001
    endloop
  endfacet
  facet normal  7.730103e-001  3.171966e-001  5.494008e-001
    outer loop
      vertex  3.116117e+000  1.520308e+001  2.933251e+001
      vertex  3.116117e+000  1.780116e+001  2.783251e+001
      vertex  2.960663e+000  1.789587e+001  2.799656e+001
    endloop
  endfacet
  facet normal  7.730111e-001  3.171963e-001  5.494000e-001
    outer loop
      vertex  3.116117e+000  1.520308e+001  2.933251e+001
      vertex  2.960663e+000  1.789587e+001  2.799656e+001
      vertex  2.960663e+000  1.529779e+001  2.949656e+001
    endloop
  endfacet
  facet normal  8.819208e-001  2.356989e-001  4.082424e-001
    outer loop
      vertex  2.960663e+000  1.529779e+001  2.949656e+001
      vertex  2.960663e+000  1.789587e+001  2.799656e+001
      vertex  2.845150e+000  1.800393e+001  2.818371e+001
    endloop
  endfacet
  facet normal  8.819203e-001  2.356992e-001  4.082430e-001
    outer loop
      vertex  2.960663e+000  1.529779e+001  2.949656e+001
      vertex  2.845150e+000  1.800393e+001  2.818371e+001
      vertex  2.845150e+000  1.540585e+001  2.968371e+001
    endloop
  endfacet
  facet normal  9.569401e-001  1.451426e-001  2.513945e-001
    outer loop
      vertex  2.845150e+000  1.540585e+001  2.968371e+001
      vertex  2.845150e+000  1.800393e+001  2.818371e+001
      vertex  2.774018e+000  1.812117e+001  2.838679e+001
    endloop
  endfacet
  facet normal  9.569402e-001  1.451424e-001  2.513940e-001
    outer loop
      vertex  2.845150e+000  1.540585e+001  2.968371e+001
      vertex  2.774018e+000  1.812117e+001  2.838679e+001
      vertex  2.774018e+000  1.552309e+001  2.988679e+001
    endloop
  endfacet
  facet normal  9.951848e-001  4.900843e-002  8.488508e-002
    outer loop
      vertex  2.774018e+000  1.552309e+001  2.988679e+001
      vertex  2.774018e+000  1.812117e+001  2.838679e+001
      vertex  2.750000e+000  1.824310e+001  2.859798e+001
    endloop
  endfacet
  facet normal  9.951848e-001  4.900843e-002  8.488508e-002
    outer loop
      vertex  2.774018e+000  1.552309e+001  2.988679e+001
      vertex  2.750000e+000  1.824310e+001  2.859798e+001
      vertex  2.750000e+000  1.564503e+001  3.009798e+001
    endloop
  endfacet
  facet normal  9.801671e-002  4.975924e-001  8.618553e-001
    outer loop
      vertex  3.756137e+000  1.763011e+001  2.753625e+001
      vertex  4.000000e+000  1.502003e+001  2.901545e+001
      vertex  4.000000e+000  1.761810e+001  2.751545e+001
    endloop
  endfacet
  facet normal -9.801469e-002  4.975925e-001  8.618554e-001
    outer loop
      vertex  4.000000e+000  1.761810e+001  2.751545e+001
      vertex  4.000000e+000  1.502003e+001  2.901545e+001
      vertex  4.243863e+000  1.503203e+001  2.903625e+001
    endloop
  endfacet
  facet normal -9.801659e-002  4.975923e-001  8.618553e-001
    outer loop
      vertex  4.000000e+000  1.761810e+001  2.751545e+001
      vertex  4.243863e+000  1.503203e+001  2.903625e+001
      vertex  4.243863e+000  1.763011e+001  2.753625e+001
    endloop
  endfacet
  facet normal -2.902876e-001  4.784697e-001  8.287339e-001
    outer loop
      vertex  4.243863e+000  1.763011e+001  2.753625e+001
      vertex  4.243863e+000  1.503203e+001  2.903625e+001
      vertex  4.478354e+000  1.506760e+001  2.909785e+001
    endloop
  endfacet
  facet normal -2.902859e-001  4.784700e-001  8.287343e-001
    outer loop
      vertex  4.243863e+000  1.763011e+001  2.753625e+001
      vertex  4.478354e+000  1.506760e+001  2.909785e+001
      vertex  4.478354e+000  1.766568e+001  2.759785e+001
    endloop
  endfacet
  facet normal -4.713975e-001  4.409605e-001  7.637659e-001
    outer loop
      vertex  4.478354e+000  1.766568e+001  2.759785e+001
      vertex  4.478354e+000  1.506760e+001  2.909785e+001
      vertex  4.694463e+000  1.512536e+001  2.919789e+001
    endloop
  endfacet
  facet normal -4.713975e-001  4.409605e-001  7.637659e-001
    outer loop
      vertex  4.478354e+000  1.766568e+001  2.759785e+001
      vertex  4.694463e+000  1.512536e+001  2.919789e+001
      vertex  4.694463e+000  1.772343e+001  2.769789e+001
    endloop
  endfacet
  facet normal -6.343933e-001  3.865053e-001  6.694467e-001
    outer loop
      vertex  4.694463e+000  1.772343e+001  2.769789e+001
      vertex  4.694463e+000  1.512536e+001  2.919789e+001
      vertex  4.883883e+000  1.520308e+001  2.933251e+001
    endloop
  endfacet
  facet normal -6.343943e-001  3.865047e-001  6.694460e-001
    outer loop
      vertex  4.694463e+000  1.772343e+001  2.769789e+001
      vertex  4.883883e+000  1.520308e+001  2.933251e+001
      vertex  4.883883e+000  1.780116e+001  2.783251e+001
    endloop
  endfacet
  facet normal -7.730106e-001  3.171965e-001  5.494005e-001
    outer loop
      vertex  4.883883e+000  1.780116e+001  2.783251e+001
      vertex  4.883883e+000  1.520308e+001  2.933251e+001
      vertex  5.039337e+000  1.529779e+001  2.949656e+001
    endloop
  endfacet
  facet normal -7.730097e-001  3.171971e-001  5.494015e-001
    outer loop
      vertex  4.883883e+000  1.780116e+001  2.783251e+001
      vertex  5.039337e+000  1.529779e+001  2.949656e+001
      vertex  5.039337e+000  1.789587e+001  2.799656e+001
    endloop
  endfacet
  facet normal -8.819208e-001  2.356989e-001  4.082424e-001
    outer loop
      vertex  5.039337e+000  1.789587e+001  2.799656e+001
      vertex  5.039337e+000  1.529779e+001  2.949656e+001
      vertex  5.154850e+000  1.540585e+001  2.968371e+001
    endloop
  endfacet
  facet normal -8.819211e-001  2.356985e-001  4.082418e-001
    outer loop
      vertex  5.039337e+000  1.789587e+001  2.799656e+001
      vertex  5.154850e+000  1.540585e+001  2.968371e+001
      vertex  5.154850e+000  1.800393e+001  2.818371e+001
    endloop
  endfacet
  facet normal -9.569403e-001  1.451424e-001  2.513940e-001
    outer loop
      vertex  5.154850e+000  1.800393e+001  2.818371e+001
      vertex  5.154850e+000  1.540585e+001  2.968371e+001
      vertex  5.225982e+000  1.552309e+001  2.988679e+001
    endloop
  endfacet
  facet normal -9.569401e-001  1.451426e-001  2.513944e-001
    outer loop
      vertex  5.154850e+000  1.800393e+001  2.818371e+001
      vertex  5.225982e+000  1.552309e+001  2.988679e+001
      vertex  5.225982e+000  1.812117e+001  2.838679e+001
    endloop
  endfacet
  facet normal -9.951848e-001  4.900843e-002  8.488508e-002
    outer loop
      vertex  5.225982e+000  1.812117e+001  2.838679e+001
      vertex  5.225982e+000  1.552309e+001  2.988679e+001
      vertex  5.250000e+000  1.564503e+001  3.009798e+001
    endloop
  endfacet
  facet normal -9.951848e-001  4.900843e-002  8.488508e-002
    outer loop
      vertex  5.225982e+000  1.812117e+001  2.838679e+001
      vertex  5.250000e+000  1.564503e+001  3.009798e+001
      vertex  5.250000e+000  1.824310e+001  2.859798e+001
    endloop
  endfacet
  facet normal  1.000000e+000  0.000000e+000  0.000000e+000
    outer loop
      vertex  8.711600e+001  3.546410e+001  0.000000e+000
      vertex  8.711600e+001  3.546410e+001  3.000000e+000
      vertex  8.711600e+001  0.000000e+000  0.000000e+000
    endloop
  endfacet
  facet normal  1.000000e+000  0.000000e+000  0.000000e+000
    outer loop
      vertex  8.711600e+001  0.000000e+000  0.000000e+000
      vertex  8.711600e+001  3.546410e+001  3.000000e+000
      vertex  8.711600e+001  3.464102e+000  3.000000e+000
    endloop
  endfacet
  facet normal  9.999999e-001  0.000000e+000  0.000000e+000
    outer loop
      vertex  8.711600e+001  0.000000e+000  0.000000e+000
      vertex  8.711600e+001  3.464102e+000  3.000000e+000
      vertex  8.711600e+001  3.552714e-015  3.000000e+000
    endloop
  endfacet
  facet normal  1.000000e+000  0.000000e+000  -0.000000e+000
    outer loop
      vertex  8.711600e+001  3.552714e-015  3.000000e+000
      vertex  8.711600e+001  3.464102e+000  3.000000e+000
      vertex  8.711600e+001  2.114503e+001  3.962426e+001
    endloop
  endfacet
  facet normal  1.000000e+000  0.000000e+000  0.000000e+000
    outer loop
      vertex  8.711600e+001  2.114503e+001  3.962426e+001
      vertex  8.711600e+001  3.464102e+000  3.000000e+000
      vertex  8.711600e+001  2.374310e+001  3.812426e+001
    endloop
  endfacet
  facet normal -9.999999e-001  -0.000000e+000  0.000000e+000
    outer loop
      vertex  0.000000e+000  3.552714e-015  3.000000e+000
      vertex  0.000000e+000  3.464102e+000  3.000000e+000
      vertex  0.000000e+000  0.000000e+000  0.000000e+000
    endloop
  endfacet
  facet normal -1.000000e+000  0.000000e+000  0.000000e+000
    outer loop
      vertex  0.000000e+000  0.000000e+000  0.000000e+000
      vertex  0.000000e+000  3.464102e+000  3.000000e+000
      vertex  0.000000e+000  3.546410e+001  3.000000e+000
    endloop
  endfacet
  facet normal -1.000000e+000  0.000000e+000  -0.000000e+000
    outer loop
      vertex  0.000000e+000  0.000000e+000  0.000000e+000
      vertex  0.000000e+000  3.546410e+001  3.000000e+000
      vertex  0.000000e+000  3.546410e+001  0.000000e+000
    endloop
  endfacet
  facet normal -9.999999e-001  0.000000e+000  0.000000e+000
    outer loop
      vertex  0.000000e+000  3.552714e-015  3.000000e+000
      vertex  0.000000e+000  2.114503e+001  3.962426e+001
      vertex  0.000000e+000  3.464102e+000  3.000000e+000
    endloop
  endfacet
  facet normal -1.000000e+000  0.000000e+000  0.000000e+000
    outer loop
      vertex  0.000000e+000  3.464102e+000  3.000000e+000
      vertex  0.000000e+000  2.114503e+001  3.962426e+001
      vertex  0.000000e+000  2.374310e+001  3.812426e+001
    endloop
  endfacet
  facet normal  0.000000e+000 -1.000000e+000  1.184238e-015
    outer loop
      vertex  0.000000e+000  3.552714e-015  3.000000e+000
      vertex  0.000000e+000  0.000000e+000  0.000000e+000
      vertex  8.711600e+001  3.552714e-015  3.000000e+000
    endloop
  endfacet
  facet normal  0.000000e+000 -1.000000e+000  1.184238e-015
    outer loop
      vertex  8.711600e+001  3.552714e-015  3.000000e+000
      vertex  0.000000e+000  0.000000e+000  0.000000e+000
      vertex  8.711600e+001  0.000000e+000  0.000000e+000
    endloop
  endfacet
  facet normal  0.000000e+000  5.000001e-001  8.660254e-001
    outer loop
      vertex  0.000000e+000  2.374310e+001  3.812426e+001
      vertex  0.000000e+000  2.114503e+001  3.962426e+001
      vertex  8.711600e+001  2.374310e+001  3.812426e+001
    endloop
  endfacet
  facet normal  0.000000e+000  5.000001e-001  8.660254e-001
    outer loop
      vertex  8.711600e+001  2.374310e+001  3.812426e+001
      vertex  0.000000e+000  2.114503e+001  3.962426e+001
      vertex  8.711600e+001  2.114503e+001  3.962426e+001
    endloop
  endfacet
  facet normal  0.000000e+000  0.000000e+000  1.000000e+000
    outer loop
      vertex  0.000000e+000  3.546410e+001  3.000000e+000
      vertex  0.000000e+000  3.464102e+000  3.000000e+000
      vertex  8.711600e+001  3.546410e+001  3.000000e+000
    endloop
  endfacet
  facet normal  0.000000e+000  0.000000e+000  1.000000e+000
    outer loop
      vertex  8.711600e+001  3.546410e+001  3.000000e+000
      vertex  0.000000e+000  3.464102e+000  3.000000e+000
      vertex  8.711600e+001  3.464102e+000  3.000000e+000
    endloop
  endfacet
  facet normal  0.000000e+000  1.000000e+000  0.000000e+000
    outer loop
      vertex  0.000000e+000  3.546410e+001  0.000000e+000
      vertex  0.000000e+000  3.546410e+001  3.000000e+000
      vertex  8.711600e+001  3.546410e+001  0.000000e+000
    endloop
  endfacet
  facet normal  0.000000e+000  1.000000e+000  -0.000000e+000
    outer loop
      vertex  8.711600e+001  3.546410e+001  0.000000e+000
      vertex  0.000000e+000  3.546410e+001  3.000000e+000
      vertex  8.711600e+001  3.546410e+001  3.000000e+000
    endloop
  endfacet
  facet normal  0.000000e+000  0.000000e+000 -1.000000e+000
    outer loop
      vertex  0.000000e+000  0.000000e+000  0.000000e+000
      vertex  0.000000e+000  3.546410e+001  0.000000e+000
      vertex  8.711600e+001  0.000000e+000  0.000000e+000
    endloop
  endfacet
  facet normal  0.000000e+000  0.000000e+000 -1.000000e+000
    outer loop
      vertex  8.711600e+001  0.000000e+000  0.000000e+000
      vertex  0.000000e+000  3.546410e+001  0.000000e+000
      vertex  8.711600e+001  3.546410e+001  0.000000e+000
    endloop
  endfacet
endsolid CATIA STL
